G75*
%MOIN*%
%OFA0B0*%
%FSLAX25Y25*%
%IPPOS*%
%LPD*%
%AMOC8*
5,1,8,0,0,1.08239X$1,22.5*
%
%ADD10C,0.02400*%
%ADD11C,0.07300*%
%ADD12C,0.08400*%
%ADD13R,0.08400X0.08400*%
%ADD14R,0.07300X0.07300*%
%ADD15C,0.08200*%
%ADD16C,0.07600*%
%ADD17C,0.08200*%
%ADD18C,0.00000*%
%ADD19C,0.12611*%
%ADD20C,0.06400*%
%ADD21C,0.06743*%
%ADD22R,0.05524X0.03950*%
%ADD23R,0.09500X0.03200*%
%ADD24R,0.03950X0.05524*%
%ADD25C,0.05600*%
%ADD26R,0.03200X0.09500*%
%ADD27R,0.09501X0.03202*%
%ADD28R,0.05524X0.05524*%
%ADD29OC8,0.07400*%
D10*
X0004200Y0002200D02*
X0004200Y0500200D01*
X0454200Y0500200D01*
X0454200Y0002200D01*
X0004200Y0002200D01*
D11*
X0058200Y0070200D03*
X0068200Y0070200D03*
X0066700Y0117700D03*
X0066700Y0127700D03*
X0064400Y0179500D03*
X0064400Y0189500D03*
X0115200Y0222200D03*
X0157200Y0222200D03*
X0120300Y0279700D03*
X0120300Y0289700D03*
X0095900Y0289600D03*
X0095900Y0279600D03*
X0054200Y0284200D03*
X0054200Y0274200D03*
X0056200Y0328200D03*
X0056200Y0338200D03*
X0032200Y0376200D03*
X0022200Y0376200D03*
X0067200Y0444200D03*
X0067200Y0454200D03*
X0187200Y0452200D03*
X0377200Y0105700D03*
X0377200Y0095700D03*
X0372200Y0066200D03*
X0382200Y0066200D03*
X0297200Y0067200D03*
X0287200Y0067200D03*
X0174200Y0066200D03*
X0164200Y0066200D03*
X0174200Y0086200D03*
X0174200Y0096200D03*
D12*
X0122200Y0444200D03*
D13*
X0142200Y0444200D03*
D14*
X0187200Y0442200D03*
X0147200Y0222200D03*
X0125200Y0222200D03*
D15*
X0182200Y0148900D02*
X0182200Y0141500D01*
X0192200Y0141500D02*
X0192200Y0148900D01*
X0202200Y0148900D02*
X0202200Y0141500D01*
X0190200Y0310500D02*
X0190200Y0317900D01*
X0180200Y0317900D02*
X0180200Y0310500D01*
X0170200Y0310500D02*
X0170200Y0317900D01*
X0160200Y0317900D02*
X0160200Y0310500D01*
X0150200Y0310500D02*
X0150200Y0317900D01*
X0140200Y0317900D02*
X0140200Y0310500D01*
X0130200Y0310500D02*
X0130200Y0317900D01*
X0120200Y0317900D02*
X0120200Y0310500D01*
X0025900Y0318200D02*
X0018500Y0318200D01*
X0018500Y0328200D02*
X0025900Y0328200D01*
X0025900Y0338200D02*
X0018500Y0338200D01*
X0067200Y0478500D02*
X0067200Y0485900D01*
X0077200Y0485900D02*
X0077200Y0478500D01*
X0154200Y0478500D02*
X0154200Y0485900D01*
X0164200Y0485900D02*
X0164200Y0478500D01*
X0190200Y0419900D02*
X0190200Y0412500D01*
X0200200Y0412500D02*
X0200200Y0419900D01*
D16*
X0218800Y0416200D02*
X0225600Y0416200D01*
X0225600Y0406200D02*
X0218800Y0406200D01*
X0218800Y0396200D02*
X0225600Y0396200D01*
X0225600Y0386200D02*
X0218800Y0386200D01*
X0218800Y0376200D02*
X0225600Y0376200D01*
X0225600Y0366200D02*
X0218800Y0366200D01*
X0218800Y0356200D02*
X0225600Y0356200D01*
X0225600Y0346200D02*
X0218800Y0346200D01*
X0218800Y0336200D02*
X0225600Y0336200D01*
X0225600Y0326200D02*
X0218800Y0326200D01*
X0218800Y0316200D02*
X0225600Y0316200D01*
X0225600Y0306200D02*
X0218800Y0306200D01*
X0218800Y0296200D02*
X0225600Y0296200D01*
X0278800Y0296200D02*
X0285600Y0296200D01*
X0285600Y0306200D02*
X0278800Y0306200D01*
X0278800Y0316200D02*
X0285600Y0316200D01*
X0285600Y0326200D02*
X0278800Y0326200D01*
X0278800Y0336200D02*
X0285600Y0336200D01*
X0285600Y0346200D02*
X0278800Y0346200D01*
X0278800Y0356200D02*
X0285600Y0356200D01*
X0285600Y0366200D02*
X0278800Y0366200D01*
X0278800Y0376200D02*
X0285600Y0376200D01*
X0285600Y0386200D02*
X0278800Y0386200D01*
X0278800Y0396200D02*
X0285600Y0396200D01*
X0285600Y0406200D02*
X0278800Y0406200D01*
X0278800Y0416200D02*
X0285600Y0416200D01*
X0285600Y0426200D02*
X0278800Y0426200D01*
X0225600Y0426200D02*
X0218800Y0426200D01*
D17*
X0100200Y0422200D03*
X0090200Y0422200D03*
X0080200Y0422200D03*
X0066200Y0376200D03*
X0056200Y0376200D03*
X0046200Y0376200D03*
X0341400Y0381100D03*
X0341400Y0363300D03*
X0367000Y0363300D03*
X0367000Y0381100D03*
X0391400Y0381100D03*
X0391400Y0363300D03*
X0417000Y0363300D03*
X0417000Y0381100D03*
X0417000Y0413300D03*
X0417000Y0431100D03*
X0391400Y0431100D03*
X0391400Y0413300D03*
X0367000Y0413300D03*
X0367000Y0431100D03*
X0341400Y0431100D03*
X0341400Y0413300D03*
X0366400Y0222100D03*
X0366400Y0204300D03*
X0392000Y0204300D03*
X0392000Y0222100D03*
D18*
X0430294Y0020200D02*
X0430296Y0020353D01*
X0430302Y0020507D01*
X0430312Y0020660D01*
X0430326Y0020812D01*
X0430344Y0020965D01*
X0430366Y0021116D01*
X0430391Y0021267D01*
X0430421Y0021418D01*
X0430455Y0021568D01*
X0430492Y0021716D01*
X0430533Y0021864D01*
X0430578Y0022010D01*
X0430627Y0022156D01*
X0430680Y0022300D01*
X0430736Y0022442D01*
X0430796Y0022583D01*
X0430860Y0022723D01*
X0430927Y0022861D01*
X0430998Y0022997D01*
X0431073Y0023131D01*
X0431150Y0023263D01*
X0431232Y0023393D01*
X0431316Y0023521D01*
X0431404Y0023647D01*
X0431495Y0023770D01*
X0431589Y0023891D01*
X0431687Y0024009D01*
X0431787Y0024125D01*
X0431891Y0024238D01*
X0431997Y0024349D01*
X0432106Y0024457D01*
X0432218Y0024562D01*
X0432332Y0024663D01*
X0432450Y0024762D01*
X0432569Y0024858D01*
X0432691Y0024951D01*
X0432816Y0025040D01*
X0432943Y0025127D01*
X0433072Y0025209D01*
X0433203Y0025289D01*
X0433336Y0025365D01*
X0433471Y0025438D01*
X0433608Y0025507D01*
X0433747Y0025572D01*
X0433887Y0025634D01*
X0434029Y0025692D01*
X0434172Y0025747D01*
X0434317Y0025798D01*
X0434463Y0025845D01*
X0434610Y0025888D01*
X0434758Y0025927D01*
X0434907Y0025963D01*
X0435057Y0025994D01*
X0435208Y0026022D01*
X0435359Y0026046D01*
X0435512Y0026066D01*
X0435664Y0026082D01*
X0435817Y0026094D01*
X0435970Y0026102D01*
X0436123Y0026106D01*
X0436277Y0026106D01*
X0436430Y0026102D01*
X0436583Y0026094D01*
X0436736Y0026082D01*
X0436888Y0026066D01*
X0437041Y0026046D01*
X0437192Y0026022D01*
X0437343Y0025994D01*
X0437493Y0025963D01*
X0437642Y0025927D01*
X0437790Y0025888D01*
X0437937Y0025845D01*
X0438083Y0025798D01*
X0438228Y0025747D01*
X0438371Y0025692D01*
X0438513Y0025634D01*
X0438653Y0025572D01*
X0438792Y0025507D01*
X0438929Y0025438D01*
X0439064Y0025365D01*
X0439197Y0025289D01*
X0439328Y0025209D01*
X0439457Y0025127D01*
X0439584Y0025040D01*
X0439709Y0024951D01*
X0439831Y0024858D01*
X0439950Y0024762D01*
X0440068Y0024663D01*
X0440182Y0024562D01*
X0440294Y0024457D01*
X0440403Y0024349D01*
X0440509Y0024238D01*
X0440613Y0024125D01*
X0440713Y0024009D01*
X0440811Y0023891D01*
X0440905Y0023770D01*
X0440996Y0023647D01*
X0441084Y0023521D01*
X0441168Y0023393D01*
X0441250Y0023263D01*
X0441327Y0023131D01*
X0441402Y0022997D01*
X0441473Y0022861D01*
X0441540Y0022723D01*
X0441604Y0022583D01*
X0441664Y0022442D01*
X0441720Y0022300D01*
X0441773Y0022156D01*
X0441822Y0022010D01*
X0441867Y0021864D01*
X0441908Y0021716D01*
X0441945Y0021568D01*
X0441979Y0021418D01*
X0442009Y0021267D01*
X0442034Y0021116D01*
X0442056Y0020965D01*
X0442074Y0020812D01*
X0442088Y0020660D01*
X0442098Y0020507D01*
X0442104Y0020353D01*
X0442106Y0020200D01*
X0442104Y0020047D01*
X0442098Y0019893D01*
X0442088Y0019740D01*
X0442074Y0019588D01*
X0442056Y0019435D01*
X0442034Y0019284D01*
X0442009Y0019133D01*
X0441979Y0018982D01*
X0441945Y0018832D01*
X0441908Y0018684D01*
X0441867Y0018536D01*
X0441822Y0018390D01*
X0441773Y0018244D01*
X0441720Y0018100D01*
X0441664Y0017958D01*
X0441604Y0017817D01*
X0441540Y0017677D01*
X0441473Y0017539D01*
X0441402Y0017403D01*
X0441327Y0017269D01*
X0441250Y0017137D01*
X0441168Y0017007D01*
X0441084Y0016879D01*
X0440996Y0016753D01*
X0440905Y0016630D01*
X0440811Y0016509D01*
X0440713Y0016391D01*
X0440613Y0016275D01*
X0440509Y0016162D01*
X0440403Y0016051D01*
X0440294Y0015943D01*
X0440182Y0015838D01*
X0440068Y0015737D01*
X0439950Y0015638D01*
X0439831Y0015542D01*
X0439709Y0015449D01*
X0439584Y0015360D01*
X0439457Y0015273D01*
X0439328Y0015191D01*
X0439197Y0015111D01*
X0439064Y0015035D01*
X0438929Y0014962D01*
X0438792Y0014893D01*
X0438653Y0014828D01*
X0438513Y0014766D01*
X0438371Y0014708D01*
X0438228Y0014653D01*
X0438083Y0014602D01*
X0437937Y0014555D01*
X0437790Y0014512D01*
X0437642Y0014473D01*
X0437493Y0014437D01*
X0437343Y0014406D01*
X0437192Y0014378D01*
X0437041Y0014354D01*
X0436888Y0014334D01*
X0436736Y0014318D01*
X0436583Y0014306D01*
X0436430Y0014298D01*
X0436277Y0014294D01*
X0436123Y0014294D01*
X0435970Y0014298D01*
X0435817Y0014306D01*
X0435664Y0014318D01*
X0435512Y0014334D01*
X0435359Y0014354D01*
X0435208Y0014378D01*
X0435057Y0014406D01*
X0434907Y0014437D01*
X0434758Y0014473D01*
X0434610Y0014512D01*
X0434463Y0014555D01*
X0434317Y0014602D01*
X0434172Y0014653D01*
X0434029Y0014708D01*
X0433887Y0014766D01*
X0433747Y0014828D01*
X0433608Y0014893D01*
X0433471Y0014962D01*
X0433336Y0015035D01*
X0433203Y0015111D01*
X0433072Y0015191D01*
X0432943Y0015273D01*
X0432816Y0015360D01*
X0432691Y0015449D01*
X0432569Y0015542D01*
X0432450Y0015638D01*
X0432332Y0015737D01*
X0432218Y0015838D01*
X0432106Y0015943D01*
X0431997Y0016051D01*
X0431891Y0016162D01*
X0431787Y0016275D01*
X0431687Y0016391D01*
X0431589Y0016509D01*
X0431495Y0016630D01*
X0431404Y0016753D01*
X0431316Y0016879D01*
X0431232Y0017007D01*
X0431150Y0017137D01*
X0431073Y0017269D01*
X0430998Y0017403D01*
X0430927Y0017539D01*
X0430860Y0017677D01*
X0430796Y0017817D01*
X0430736Y0017958D01*
X0430680Y0018100D01*
X0430627Y0018244D01*
X0430578Y0018390D01*
X0430533Y0018536D01*
X0430492Y0018684D01*
X0430455Y0018832D01*
X0430421Y0018982D01*
X0430391Y0019133D01*
X0430366Y0019284D01*
X0430344Y0019435D01*
X0430326Y0019588D01*
X0430312Y0019740D01*
X0430302Y0019893D01*
X0430296Y0020047D01*
X0430294Y0020200D01*
X0016294Y0020200D02*
X0016296Y0020353D01*
X0016302Y0020507D01*
X0016312Y0020660D01*
X0016326Y0020812D01*
X0016344Y0020965D01*
X0016366Y0021116D01*
X0016391Y0021267D01*
X0016421Y0021418D01*
X0016455Y0021568D01*
X0016492Y0021716D01*
X0016533Y0021864D01*
X0016578Y0022010D01*
X0016627Y0022156D01*
X0016680Y0022300D01*
X0016736Y0022442D01*
X0016796Y0022583D01*
X0016860Y0022723D01*
X0016927Y0022861D01*
X0016998Y0022997D01*
X0017073Y0023131D01*
X0017150Y0023263D01*
X0017232Y0023393D01*
X0017316Y0023521D01*
X0017404Y0023647D01*
X0017495Y0023770D01*
X0017589Y0023891D01*
X0017687Y0024009D01*
X0017787Y0024125D01*
X0017891Y0024238D01*
X0017997Y0024349D01*
X0018106Y0024457D01*
X0018218Y0024562D01*
X0018332Y0024663D01*
X0018450Y0024762D01*
X0018569Y0024858D01*
X0018691Y0024951D01*
X0018816Y0025040D01*
X0018943Y0025127D01*
X0019072Y0025209D01*
X0019203Y0025289D01*
X0019336Y0025365D01*
X0019471Y0025438D01*
X0019608Y0025507D01*
X0019747Y0025572D01*
X0019887Y0025634D01*
X0020029Y0025692D01*
X0020172Y0025747D01*
X0020317Y0025798D01*
X0020463Y0025845D01*
X0020610Y0025888D01*
X0020758Y0025927D01*
X0020907Y0025963D01*
X0021057Y0025994D01*
X0021208Y0026022D01*
X0021359Y0026046D01*
X0021512Y0026066D01*
X0021664Y0026082D01*
X0021817Y0026094D01*
X0021970Y0026102D01*
X0022123Y0026106D01*
X0022277Y0026106D01*
X0022430Y0026102D01*
X0022583Y0026094D01*
X0022736Y0026082D01*
X0022888Y0026066D01*
X0023041Y0026046D01*
X0023192Y0026022D01*
X0023343Y0025994D01*
X0023493Y0025963D01*
X0023642Y0025927D01*
X0023790Y0025888D01*
X0023937Y0025845D01*
X0024083Y0025798D01*
X0024228Y0025747D01*
X0024371Y0025692D01*
X0024513Y0025634D01*
X0024653Y0025572D01*
X0024792Y0025507D01*
X0024929Y0025438D01*
X0025064Y0025365D01*
X0025197Y0025289D01*
X0025328Y0025209D01*
X0025457Y0025127D01*
X0025584Y0025040D01*
X0025709Y0024951D01*
X0025831Y0024858D01*
X0025950Y0024762D01*
X0026068Y0024663D01*
X0026182Y0024562D01*
X0026294Y0024457D01*
X0026403Y0024349D01*
X0026509Y0024238D01*
X0026613Y0024125D01*
X0026713Y0024009D01*
X0026811Y0023891D01*
X0026905Y0023770D01*
X0026996Y0023647D01*
X0027084Y0023521D01*
X0027168Y0023393D01*
X0027250Y0023263D01*
X0027327Y0023131D01*
X0027402Y0022997D01*
X0027473Y0022861D01*
X0027540Y0022723D01*
X0027604Y0022583D01*
X0027664Y0022442D01*
X0027720Y0022300D01*
X0027773Y0022156D01*
X0027822Y0022010D01*
X0027867Y0021864D01*
X0027908Y0021716D01*
X0027945Y0021568D01*
X0027979Y0021418D01*
X0028009Y0021267D01*
X0028034Y0021116D01*
X0028056Y0020965D01*
X0028074Y0020812D01*
X0028088Y0020660D01*
X0028098Y0020507D01*
X0028104Y0020353D01*
X0028106Y0020200D01*
X0028104Y0020047D01*
X0028098Y0019893D01*
X0028088Y0019740D01*
X0028074Y0019588D01*
X0028056Y0019435D01*
X0028034Y0019284D01*
X0028009Y0019133D01*
X0027979Y0018982D01*
X0027945Y0018832D01*
X0027908Y0018684D01*
X0027867Y0018536D01*
X0027822Y0018390D01*
X0027773Y0018244D01*
X0027720Y0018100D01*
X0027664Y0017958D01*
X0027604Y0017817D01*
X0027540Y0017677D01*
X0027473Y0017539D01*
X0027402Y0017403D01*
X0027327Y0017269D01*
X0027250Y0017137D01*
X0027168Y0017007D01*
X0027084Y0016879D01*
X0026996Y0016753D01*
X0026905Y0016630D01*
X0026811Y0016509D01*
X0026713Y0016391D01*
X0026613Y0016275D01*
X0026509Y0016162D01*
X0026403Y0016051D01*
X0026294Y0015943D01*
X0026182Y0015838D01*
X0026068Y0015737D01*
X0025950Y0015638D01*
X0025831Y0015542D01*
X0025709Y0015449D01*
X0025584Y0015360D01*
X0025457Y0015273D01*
X0025328Y0015191D01*
X0025197Y0015111D01*
X0025064Y0015035D01*
X0024929Y0014962D01*
X0024792Y0014893D01*
X0024653Y0014828D01*
X0024513Y0014766D01*
X0024371Y0014708D01*
X0024228Y0014653D01*
X0024083Y0014602D01*
X0023937Y0014555D01*
X0023790Y0014512D01*
X0023642Y0014473D01*
X0023493Y0014437D01*
X0023343Y0014406D01*
X0023192Y0014378D01*
X0023041Y0014354D01*
X0022888Y0014334D01*
X0022736Y0014318D01*
X0022583Y0014306D01*
X0022430Y0014298D01*
X0022277Y0014294D01*
X0022123Y0014294D01*
X0021970Y0014298D01*
X0021817Y0014306D01*
X0021664Y0014318D01*
X0021512Y0014334D01*
X0021359Y0014354D01*
X0021208Y0014378D01*
X0021057Y0014406D01*
X0020907Y0014437D01*
X0020758Y0014473D01*
X0020610Y0014512D01*
X0020463Y0014555D01*
X0020317Y0014602D01*
X0020172Y0014653D01*
X0020029Y0014708D01*
X0019887Y0014766D01*
X0019747Y0014828D01*
X0019608Y0014893D01*
X0019471Y0014962D01*
X0019336Y0015035D01*
X0019203Y0015111D01*
X0019072Y0015191D01*
X0018943Y0015273D01*
X0018816Y0015360D01*
X0018691Y0015449D01*
X0018569Y0015542D01*
X0018450Y0015638D01*
X0018332Y0015737D01*
X0018218Y0015838D01*
X0018106Y0015943D01*
X0017997Y0016051D01*
X0017891Y0016162D01*
X0017787Y0016275D01*
X0017687Y0016391D01*
X0017589Y0016509D01*
X0017495Y0016630D01*
X0017404Y0016753D01*
X0017316Y0016879D01*
X0017232Y0017007D01*
X0017150Y0017137D01*
X0017073Y0017269D01*
X0016998Y0017403D01*
X0016927Y0017539D01*
X0016860Y0017677D01*
X0016796Y0017817D01*
X0016736Y0017958D01*
X0016680Y0018100D01*
X0016627Y0018244D01*
X0016578Y0018390D01*
X0016533Y0018536D01*
X0016492Y0018684D01*
X0016455Y0018832D01*
X0016421Y0018982D01*
X0016391Y0019133D01*
X0016366Y0019284D01*
X0016344Y0019435D01*
X0016326Y0019588D01*
X0016312Y0019740D01*
X0016302Y0019893D01*
X0016296Y0020047D01*
X0016294Y0020200D01*
X0016294Y0482200D02*
X0016296Y0482353D01*
X0016302Y0482507D01*
X0016312Y0482660D01*
X0016326Y0482812D01*
X0016344Y0482965D01*
X0016366Y0483116D01*
X0016391Y0483267D01*
X0016421Y0483418D01*
X0016455Y0483568D01*
X0016492Y0483716D01*
X0016533Y0483864D01*
X0016578Y0484010D01*
X0016627Y0484156D01*
X0016680Y0484300D01*
X0016736Y0484442D01*
X0016796Y0484583D01*
X0016860Y0484723D01*
X0016927Y0484861D01*
X0016998Y0484997D01*
X0017073Y0485131D01*
X0017150Y0485263D01*
X0017232Y0485393D01*
X0017316Y0485521D01*
X0017404Y0485647D01*
X0017495Y0485770D01*
X0017589Y0485891D01*
X0017687Y0486009D01*
X0017787Y0486125D01*
X0017891Y0486238D01*
X0017997Y0486349D01*
X0018106Y0486457D01*
X0018218Y0486562D01*
X0018332Y0486663D01*
X0018450Y0486762D01*
X0018569Y0486858D01*
X0018691Y0486951D01*
X0018816Y0487040D01*
X0018943Y0487127D01*
X0019072Y0487209D01*
X0019203Y0487289D01*
X0019336Y0487365D01*
X0019471Y0487438D01*
X0019608Y0487507D01*
X0019747Y0487572D01*
X0019887Y0487634D01*
X0020029Y0487692D01*
X0020172Y0487747D01*
X0020317Y0487798D01*
X0020463Y0487845D01*
X0020610Y0487888D01*
X0020758Y0487927D01*
X0020907Y0487963D01*
X0021057Y0487994D01*
X0021208Y0488022D01*
X0021359Y0488046D01*
X0021512Y0488066D01*
X0021664Y0488082D01*
X0021817Y0488094D01*
X0021970Y0488102D01*
X0022123Y0488106D01*
X0022277Y0488106D01*
X0022430Y0488102D01*
X0022583Y0488094D01*
X0022736Y0488082D01*
X0022888Y0488066D01*
X0023041Y0488046D01*
X0023192Y0488022D01*
X0023343Y0487994D01*
X0023493Y0487963D01*
X0023642Y0487927D01*
X0023790Y0487888D01*
X0023937Y0487845D01*
X0024083Y0487798D01*
X0024228Y0487747D01*
X0024371Y0487692D01*
X0024513Y0487634D01*
X0024653Y0487572D01*
X0024792Y0487507D01*
X0024929Y0487438D01*
X0025064Y0487365D01*
X0025197Y0487289D01*
X0025328Y0487209D01*
X0025457Y0487127D01*
X0025584Y0487040D01*
X0025709Y0486951D01*
X0025831Y0486858D01*
X0025950Y0486762D01*
X0026068Y0486663D01*
X0026182Y0486562D01*
X0026294Y0486457D01*
X0026403Y0486349D01*
X0026509Y0486238D01*
X0026613Y0486125D01*
X0026713Y0486009D01*
X0026811Y0485891D01*
X0026905Y0485770D01*
X0026996Y0485647D01*
X0027084Y0485521D01*
X0027168Y0485393D01*
X0027250Y0485263D01*
X0027327Y0485131D01*
X0027402Y0484997D01*
X0027473Y0484861D01*
X0027540Y0484723D01*
X0027604Y0484583D01*
X0027664Y0484442D01*
X0027720Y0484300D01*
X0027773Y0484156D01*
X0027822Y0484010D01*
X0027867Y0483864D01*
X0027908Y0483716D01*
X0027945Y0483568D01*
X0027979Y0483418D01*
X0028009Y0483267D01*
X0028034Y0483116D01*
X0028056Y0482965D01*
X0028074Y0482812D01*
X0028088Y0482660D01*
X0028098Y0482507D01*
X0028104Y0482353D01*
X0028106Y0482200D01*
X0028104Y0482047D01*
X0028098Y0481893D01*
X0028088Y0481740D01*
X0028074Y0481588D01*
X0028056Y0481435D01*
X0028034Y0481284D01*
X0028009Y0481133D01*
X0027979Y0480982D01*
X0027945Y0480832D01*
X0027908Y0480684D01*
X0027867Y0480536D01*
X0027822Y0480390D01*
X0027773Y0480244D01*
X0027720Y0480100D01*
X0027664Y0479958D01*
X0027604Y0479817D01*
X0027540Y0479677D01*
X0027473Y0479539D01*
X0027402Y0479403D01*
X0027327Y0479269D01*
X0027250Y0479137D01*
X0027168Y0479007D01*
X0027084Y0478879D01*
X0026996Y0478753D01*
X0026905Y0478630D01*
X0026811Y0478509D01*
X0026713Y0478391D01*
X0026613Y0478275D01*
X0026509Y0478162D01*
X0026403Y0478051D01*
X0026294Y0477943D01*
X0026182Y0477838D01*
X0026068Y0477737D01*
X0025950Y0477638D01*
X0025831Y0477542D01*
X0025709Y0477449D01*
X0025584Y0477360D01*
X0025457Y0477273D01*
X0025328Y0477191D01*
X0025197Y0477111D01*
X0025064Y0477035D01*
X0024929Y0476962D01*
X0024792Y0476893D01*
X0024653Y0476828D01*
X0024513Y0476766D01*
X0024371Y0476708D01*
X0024228Y0476653D01*
X0024083Y0476602D01*
X0023937Y0476555D01*
X0023790Y0476512D01*
X0023642Y0476473D01*
X0023493Y0476437D01*
X0023343Y0476406D01*
X0023192Y0476378D01*
X0023041Y0476354D01*
X0022888Y0476334D01*
X0022736Y0476318D01*
X0022583Y0476306D01*
X0022430Y0476298D01*
X0022277Y0476294D01*
X0022123Y0476294D01*
X0021970Y0476298D01*
X0021817Y0476306D01*
X0021664Y0476318D01*
X0021512Y0476334D01*
X0021359Y0476354D01*
X0021208Y0476378D01*
X0021057Y0476406D01*
X0020907Y0476437D01*
X0020758Y0476473D01*
X0020610Y0476512D01*
X0020463Y0476555D01*
X0020317Y0476602D01*
X0020172Y0476653D01*
X0020029Y0476708D01*
X0019887Y0476766D01*
X0019747Y0476828D01*
X0019608Y0476893D01*
X0019471Y0476962D01*
X0019336Y0477035D01*
X0019203Y0477111D01*
X0019072Y0477191D01*
X0018943Y0477273D01*
X0018816Y0477360D01*
X0018691Y0477449D01*
X0018569Y0477542D01*
X0018450Y0477638D01*
X0018332Y0477737D01*
X0018218Y0477838D01*
X0018106Y0477943D01*
X0017997Y0478051D01*
X0017891Y0478162D01*
X0017787Y0478275D01*
X0017687Y0478391D01*
X0017589Y0478509D01*
X0017495Y0478630D01*
X0017404Y0478753D01*
X0017316Y0478879D01*
X0017232Y0479007D01*
X0017150Y0479137D01*
X0017073Y0479269D01*
X0016998Y0479403D01*
X0016927Y0479539D01*
X0016860Y0479677D01*
X0016796Y0479817D01*
X0016736Y0479958D01*
X0016680Y0480100D01*
X0016627Y0480244D01*
X0016578Y0480390D01*
X0016533Y0480536D01*
X0016492Y0480684D01*
X0016455Y0480832D01*
X0016421Y0480982D01*
X0016391Y0481133D01*
X0016366Y0481284D01*
X0016344Y0481435D01*
X0016326Y0481588D01*
X0016312Y0481740D01*
X0016302Y0481893D01*
X0016296Y0482047D01*
X0016294Y0482200D01*
X0430294Y0482200D02*
X0430296Y0482353D01*
X0430302Y0482507D01*
X0430312Y0482660D01*
X0430326Y0482812D01*
X0430344Y0482965D01*
X0430366Y0483116D01*
X0430391Y0483267D01*
X0430421Y0483418D01*
X0430455Y0483568D01*
X0430492Y0483716D01*
X0430533Y0483864D01*
X0430578Y0484010D01*
X0430627Y0484156D01*
X0430680Y0484300D01*
X0430736Y0484442D01*
X0430796Y0484583D01*
X0430860Y0484723D01*
X0430927Y0484861D01*
X0430998Y0484997D01*
X0431073Y0485131D01*
X0431150Y0485263D01*
X0431232Y0485393D01*
X0431316Y0485521D01*
X0431404Y0485647D01*
X0431495Y0485770D01*
X0431589Y0485891D01*
X0431687Y0486009D01*
X0431787Y0486125D01*
X0431891Y0486238D01*
X0431997Y0486349D01*
X0432106Y0486457D01*
X0432218Y0486562D01*
X0432332Y0486663D01*
X0432450Y0486762D01*
X0432569Y0486858D01*
X0432691Y0486951D01*
X0432816Y0487040D01*
X0432943Y0487127D01*
X0433072Y0487209D01*
X0433203Y0487289D01*
X0433336Y0487365D01*
X0433471Y0487438D01*
X0433608Y0487507D01*
X0433747Y0487572D01*
X0433887Y0487634D01*
X0434029Y0487692D01*
X0434172Y0487747D01*
X0434317Y0487798D01*
X0434463Y0487845D01*
X0434610Y0487888D01*
X0434758Y0487927D01*
X0434907Y0487963D01*
X0435057Y0487994D01*
X0435208Y0488022D01*
X0435359Y0488046D01*
X0435512Y0488066D01*
X0435664Y0488082D01*
X0435817Y0488094D01*
X0435970Y0488102D01*
X0436123Y0488106D01*
X0436277Y0488106D01*
X0436430Y0488102D01*
X0436583Y0488094D01*
X0436736Y0488082D01*
X0436888Y0488066D01*
X0437041Y0488046D01*
X0437192Y0488022D01*
X0437343Y0487994D01*
X0437493Y0487963D01*
X0437642Y0487927D01*
X0437790Y0487888D01*
X0437937Y0487845D01*
X0438083Y0487798D01*
X0438228Y0487747D01*
X0438371Y0487692D01*
X0438513Y0487634D01*
X0438653Y0487572D01*
X0438792Y0487507D01*
X0438929Y0487438D01*
X0439064Y0487365D01*
X0439197Y0487289D01*
X0439328Y0487209D01*
X0439457Y0487127D01*
X0439584Y0487040D01*
X0439709Y0486951D01*
X0439831Y0486858D01*
X0439950Y0486762D01*
X0440068Y0486663D01*
X0440182Y0486562D01*
X0440294Y0486457D01*
X0440403Y0486349D01*
X0440509Y0486238D01*
X0440613Y0486125D01*
X0440713Y0486009D01*
X0440811Y0485891D01*
X0440905Y0485770D01*
X0440996Y0485647D01*
X0441084Y0485521D01*
X0441168Y0485393D01*
X0441250Y0485263D01*
X0441327Y0485131D01*
X0441402Y0484997D01*
X0441473Y0484861D01*
X0441540Y0484723D01*
X0441604Y0484583D01*
X0441664Y0484442D01*
X0441720Y0484300D01*
X0441773Y0484156D01*
X0441822Y0484010D01*
X0441867Y0483864D01*
X0441908Y0483716D01*
X0441945Y0483568D01*
X0441979Y0483418D01*
X0442009Y0483267D01*
X0442034Y0483116D01*
X0442056Y0482965D01*
X0442074Y0482812D01*
X0442088Y0482660D01*
X0442098Y0482507D01*
X0442104Y0482353D01*
X0442106Y0482200D01*
X0442104Y0482047D01*
X0442098Y0481893D01*
X0442088Y0481740D01*
X0442074Y0481588D01*
X0442056Y0481435D01*
X0442034Y0481284D01*
X0442009Y0481133D01*
X0441979Y0480982D01*
X0441945Y0480832D01*
X0441908Y0480684D01*
X0441867Y0480536D01*
X0441822Y0480390D01*
X0441773Y0480244D01*
X0441720Y0480100D01*
X0441664Y0479958D01*
X0441604Y0479817D01*
X0441540Y0479677D01*
X0441473Y0479539D01*
X0441402Y0479403D01*
X0441327Y0479269D01*
X0441250Y0479137D01*
X0441168Y0479007D01*
X0441084Y0478879D01*
X0440996Y0478753D01*
X0440905Y0478630D01*
X0440811Y0478509D01*
X0440713Y0478391D01*
X0440613Y0478275D01*
X0440509Y0478162D01*
X0440403Y0478051D01*
X0440294Y0477943D01*
X0440182Y0477838D01*
X0440068Y0477737D01*
X0439950Y0477638D01*
X0439831Y0477542D01*
X0439709Y0477449D01*
X0439584Y0477360D01*
X0439457Y0477273D01*
X0439328Y0477191D01*
X0439197Y0477111D01*
X0439064Y0477035D01*
X0438929Y0476962D01*
X0438792Y0476893D01*
X0438653Y0476828D01*
X0438513Y0476766D01*
X0438371Y0476708D01*
X0438228Y0476653D01*
X0438083Y0476602D01*
X0437937Y0476555D01*
X0437790Y0476512D01*
X0437642Y0476473D01*
X0437493Y0476437D01*
X0437343Y0476406D01*
X0437192Y0476378D01*
X0437041Y0476354D01*
X0436888Y0476334D01*
X0436736Y0476318D01*
X0436583Y0476306D01*
X0436430Y0476298D01*
X0436277Y0476294D01*
X0436123Y0476294D01*
X0435970Y0476298D01*
X0435817Y0476306D01*
X0435664Y0476318D01*
X0435512Y0476334D01*
X0435359Y0476354D01*
X0435208Y0476378D01*
X0435057Y0476406D01*
X0434907Y0476437D01*
X0434758Y0476473D01*
X0434610Y0476512D01*
X0434463Y0476555D01*
X0434317Y0476602D01*
X0434172Y0476653D01*
X0434029Y0476708D01*
X0433887Y0476766D01*
X0433747Y0476828D01*
X0433608Y0476893D01*
X0433471Y0476962D01*
X0433336Y0477035D01*
X0433203Y0477111D01*
X0433072Y0477191D01*
X0432943Y0477273D01*
X0432816Y0477360D01*
X0432691Y0477449D01*
X0432569Y0477542D01*
X0432450Y0477638D01*
X0432332Y0477737D01*
X0432218Y0477838D01*
X0432106Y0477943D01*
X0431997Y0478051D01*
X0431891Y0478162D01*
X0431787Y0478275D01*
X0431687Y0478391D01*
X0431589Y0478509D01*
X0431495Y0478630D01*
X0431404Y0478753D01*
X0431316Y0478879D01*
X0431232Y0479007D01*
X0431150Y0479137D01*
X0431073Y0479269D01*
X0430998Y0479403D01*
X0430927Y0479539D01*
X0430860Y0479677D01*
X0430796Y0479817D01*
X0430736Y0479958D01*
X0430680Y0480100D01*
X0430627Y0480244D01*
X0430578Y0480390D01*
X0430533Y0480536D01*
X0430492Y0480684D01*
X0430455Y0480832D01*
X0430421Y0480982D01*
X0430391Y0481133D01*
X0430366Y0481284D01*
X0430344Y0481435D01*
X0430326Y0481588D01*
X0430312Y0481740D01*
X0430302Y0481893D01*
X0430296Y0482047D01*
X0430294Y0482200D01*
D19*
X0436200Y0482200D03*
X0022200Y0482200D03*
X0022200Y0020200D03*
X0436200Y0020200D03*
D20*
X0066200Y0418400D02*
X0066200Y0424000D01*
X0056200Y0424000D02*
X0056200Y0418400D01*
X0046200Y0418400D02*
X0046200Y0424000D01*
D21*
X0080200Y0399200D03*
X0090200Y0399200D03*
X0090200Y0369200D03*
X0080200Y0369200D03*
D22*
X0098200Y0259743D03*
X0098200Y0252657D03*
X0110200Y0252657D03*
X0110200Y0259743D03*
X0122200Y0259743D03*
X0122200Y0252657D03*
X0134200Y0252657D03*
X0134200Y0259743D03*
X0121600Y0198543D03*
X0121600Y0191457D03*
X0109600Y0191457D03*
X0109600Y0198543D03*
X0097600Y0198543D03*
X0097600Y0191457D03*
X0087100Y0193543D03*
X0087100Y0186457D03*
X0092200Y0169743D03*
X0092200Y0162657D03*
X0092200Y0153743D03*
X0092200Y0146657D03*
X0104700Y0146657D03*
X0104700Y0153743D03*
X0116200Y0153743D03*
X0116200Y0146657D03*
X0066700Y0102143D03*
X0066700Y0095057D03*
X0210200Y0043743D03*
X0210200Y0036657D03*
X0210200Y0029743D03*
X0210200Y0022657D03*
X0222200Y0022657D03*
X0222200Y0029743D03*
X0222200Y0036657D03*
X0222200Y0043743D03*
X0234200Y0043743D03*
X0234200Y0036657D03*
X0234200Y0029743D03*
X0234200Y0022657D03*
X0268200Y0098657D03*
X0268200Y0105743D03*
X0273200Y0134357D03*
X0273200Y0141443D03*
X0243200Y0190657D03*
X0243200Y0197743D03*
X0216200Y0200743D03*
X0216200Y0193657D03*
X0212200Y0229657D03*
X0212200Y0236743D03*
X0253200Y0254457D03*
X0253200Y0261543D03*
X0320200Y0215743D03*
X0320200Y0208657D03*
X0331700Y0208657D03*
X0331700Y0215743D03*
X0331700Y0224157D03*
X0331700Y0231243D03*
X0343200Y0215743D03*
X0343200Y0208657D03*
D23*
X0334500Y0093700D03*
X0334500Y0088700D03*
X0334500Y0083700D03*
X0334500Y0078700D03*
X0313900Y0078700D03*
X0313900Y0083700D03*
X0313900Y0088700D03*
X0313900Y0093700D03*
X0126500Y0095700D03*
X0126500Y0090700D03*
X0126500Y0085700D03*
X0126500Y0080700D03*
X0105900Y0080700D03*
X0105900Y0085700D03*
X0105900Y0090700D03*
X0105900Y0095700D03*
D24*
X0104657Y0110200D03*
X0111743Y0110200D03*
X0128657Y0110200D03*
X0135743Y0110200D03*
X0144657Y0110200D03*
X0151743Y0110200D03*
X0151743Y0098200D03*
X0144657Y0098200D03*
X0144657Y0086200D03*
X0151743Y0086200D03*
X0094243Y0099700D03*
X0087157Y0099700D03*
X0087157Y0110200D03*
X0094243Y0110200D03*
X0235157Y0245200D03*
X0242243Y0245200D03*
X0283157Y0175700D03*
X0290243Y0175700D03*
X0298657Y0175700D03*
X0305743Y0175700D03*
X0313957Y0190200D03*
X0321043Y0190200D03*
X0267743Y0147200D03*
X0260657Y0147200D03*
X0290657Y0118200D03*
X0297743Y0118200D03*
X0297743Y0106200D03*
X0290657Y0106200D03*
X0293743Y0094200D03*
X0286657Y0094200D03*
X0350657Y0096200D03*
X0357743Y0096200D03*
X0357743Y0108200D03*
X0350657Y0108200D03*
X0350657Y0120200D03*
X0357743Y0120200D03*
X0357743Y0083700D03*
X0350657Y0083700D03*
D25*
X0344200Y0042200D03*
X0344200Y0032200D03*
X0344200Y0022200D03*
X0378200Y0022200D03*
X0378200Y0032200D03*
X0378200Y0042200D03*
X0310200Y0042200D03*
X0310200Y0032200D03*
X0310200Y0022200D03*
X0276200Y0022200D03*
X0276200Y0032200D03*
X0276200Y0042200D03*
X0166200Y0042200D03*
X0166200Y0032200D03*
X0166200Y0022200D03*
X0132200Y0022200D03*
X0132200Y0032200D03*
X0132200Y0042200D03*
X0098200Y0042200D03*
X0098200Y0032200D03*
X0098200Y0022200D03*
X0062200Y0022200D03*
X0062200Y0032200D03*
X0062200Y0042200D03*
X0042200Y0166200D03*
X0032200Y0166200D03*
X0022200Y0166200D03*
X0022200Y0200200D03*
X0032200Y0200200D03*
X0042200Y0200200D03*
X0042200Y0234200D03*
X0032200Y0234200D03*
X0022200Y0234200D03*
D26*
X0080700Y0232500D03*
X0085700Y0232500D03*
X0090700Y0232500D03*
X0095700Y0232500D03*
X0095700Y0211900D03*
X0090700Y0211900D03*
X0085700Y0211900D03*
X0080700Y0211900D03*
D27*
X0261275Y0210200D03*
X0261275Y0205200D03*
X0261275Y0200200D03*
X0261275Y0195200D03*
X0261275Y0190200D03*
X0261275Y0185200D03*
X0261275Y0215200D03*
X0261275Y0220200D03*
X0261275Y0225200D03*
X0261275Y0230200D03*
X0261275Y0235200D03*
X0261275Y0240200D03*
X0261275Y0245200D03*
X0261275Y0250200D03*
X0303125Y0250200D03*
X0303125Y0245200D03*
X0303125Y0240200D03*
X0303125Y0235200D03*
X0303125Y0230200D03*
X0303125Y0225200D03*
X0303125Y0220200D03*
X0303125Y0215200D03*
X0303125Y0210200D03*
X0303125Y0205200D03*
X0303125Y0200200D03*
X0303125Y0195200D03*
X0303125Y0190200D03*
X0303125Y0185200D03*
D28*
X0212200Y0244066D03*
X0212200Y0252334D03*
D29*
X0349200Y0262200D03*
X0359200Y0262200D03*
X0359200Y0292200D03*
X0349200Y0292200D03*
X0349200Y0322200D03*
X0359200Y0322200D03*
X0399200Y0322200D03*
X0409200Y0322200D03*
X0409200Y0292200D03*
X0399200Y0292200D03*
X0399200Y0262200D03*
X0409200Y0262200D03*
X0384200Y0457200D03*
X0374200Y0457200D03*
M02*
