%
M48
M72
T01C0.02362
T02C0.02400
T03C0.02756
T04C0.03200
T05C0.03543
T06C0.04000
T07C0.04400
T08C0.11811
%
T01
X58200Y84300
X50700Y90700
X66700Y107800
X66700Y138200
X99700Y125200
X131700Y102200
X137500Y75500
X132200Y66200
X111600Y54800
X158800Y86200
X198500Y47700
X234200Y15500
X244800Y10100
X297700Y83700
X305800Y78500
X334500Y66200
X356600Y58400
X377200Y83700
X361100Y101500
X288200Y147200
X268100Y88500
X227200Y127200
X227200Y146700
X216200Y184200
X243200Y206700
X250200Y222700
X249200Y235200
X227200Y245200
X224700Y257700
X235200Y263200
X252900Y288000
X261300Y281600
X283400Y274500
X291200Y257700
X322200Y227200
X332200Y262200
X332200Y292200
X331700Y316200
X326200Y366200
X320200Y387200
X385700Y322200
X386700Y292200
X382200Y262200
X391200Y352200
X391200Y396200
X252200Y457200
X252200Y432200
X241200Y386200
X209100Y386500
X180500Y424600
X162200Y436200
X74200Y408200
X56200Y408200
X156200Y285200
X162800Y279700
X191800Y299400
X209300Y299700
X194400Y263100
X216200Y218200
X182200Y203200
X153600Y170800
X139400Y165000
X129900Y180100
X111900Y170800
X104600Y165000
X80900Y179500
X85700Y201900
X55600Y225500
X66900Y239400
X80700Y244100
X95900Y271000
X110200Y244200
X147300Y240200
X54000Y201400
X54000Y181600
X22200Y219700
X323600Y22300
T02
X62200Y22200
X62200Y32200
X62200Y42200
X98200Y42200
X98200Y32200
X98200Y22200
X132200Y22200
X132200Y32200
X132200Y42200
X166200Y42200
X166200Y32200
X166200Y22200
X276200Y22200
X276200Y32200
X276200Y42200
X310200Y42200
X310200Y32200
X310200Y22200
X344200Y22200
X344200Y32200
X344200Y42200
X378200Y42200
X378200Y32200
X378200Y22200
X42200Y166200
X32200Y166200
X22200Y166200
X22200Y200200
X32200Y200200
X42200Y200200
X42200Y234200
X32200Y234200
X22200Y234200
T03
X58200Y70200
X68200Y70200
X66700Y117700
X66700Y127700
X64400Y179500
X64400Y189500
X115200Y222200
X125200Y222200
X147200Y222200
X157200Y222200
X120300Y279700
X120300Y289700
X95900Y289600
X95900Y279600
X54200Y284200
X54200Y274200
X56200Y328200
X56200Y338200
X32200Y376200
X22200Y376200
X67200Y444200
X67200Y454200
X187200Y452200
X187200Y442200
X377200Y105700
X377200Y95700
X372200Y66200
X382200Y66200
X297200Y67200
X287200Y67200
X174200Y66200
X164200Y66200
X174200Y86200
X174200Y96200
T04
X46200Y376200
X56200Y376200
X66200Y376200
X66200Y421200
X56200Y421200
X46200Y421200
X80200Y422200
X90200Y422200
X100200Y422200
X349200Y322200
X359200Y322200
X359200Y292200
X349200Y292200
X349200Y262200
X359200Y262200
X399200Y262200
X409200Y262200
X409200Y292200
X399200Y292200
X399200Y322200
X409200Y322200
X384200Y457200
X374200Y457200
T05
X80200Y369200
X90200Y369200
X90200Y399200
X80200Y399200
X122200Y444200
X142200Y444200
T06
X341400Y363300
X341400Y381100
X367000Y381100
X367000Y363300
X391400Y363300
X391400Y381100
X417000Y381100
X417000Y363300
X417000Y413300
X417000Y431100
X391400Y431100
X391400Y413300
X367000Y413300
X367000Y431100
X341400Y431100
X341400Y413300
X392000Y222100
X392000Y204300
X366400Y204300
X366400Y222100
T07
X182200Y145200
X192200Y145200
X202200Y145200
X222200Y296200
X222200Y306200
X222200Y316200
X222200Y326200
X222200Y336200
X222200Y346200
X222200Y356200
X222200Y366200
X222200Y376200
X222200Y386200
X222200Y396200
X222200Y406200
X222200Y416200
X222200Y426200
X200200Y416200
X190200Y416200
X164200Y482200
X154200Y482200
X77200Y482200
X67200Y482200
X22200Y338200
X22200Y328200
X22200Y318200
X120200Y314200
X130200Y314200
X140200Y314200
X150200Y314200
X160200Y314200
X170200Y314200
X180200Y314200
X190200Y314200
X282200Y316200
X282200Y306200
X282200Y296200
X282200Y326200
X282200Y336200
X282200Y346200
X282200Y356200
X282200Y366200
X282200Y376200
X282200Y386200
X282200Y396200
X282200Y406200
X282200Y416200
X282200Y426200
T08
X22200Y20200
X22200Y482200
X436200Y482200
X436200Y20200
M30
